<svg id="Layer_1" data-name="Layer 1" xmlns="http://www.w3.org/2000/svg" viewBox="0 0 179.5 109.79"><defs><style>.cls-1{fill:none;stroke:#ea5b0c;stroke-linecap:round;stroke-linejoin:round;stroke-width:4px;}</style></defs><title>logoFAT</title><path class="cls-1" d="M376.36,334c5.92,5.83,6.4,12.66,4.92,20.33H315.36v11.29" transform="translate(-204.49 -282.95)"/><path class="cls-1" d="M347.24,300.3c-2.54,2-5.55,3.72-7.53,6.08-7.15,8.5-13.9,17.25-20.93,25.82-1.26,1.53-3.19,2.64-4.8,3.94" transform="translate(-204.49 -282.95)"/><path class="cls-1" d="M219.71,388.86,206.49,370c3.24-10.34,13.86-12.15,21.66-16.51,14.61-8.17,29.84-15.53,45-23,6-3,12.37-5.4,18.7-7.85,5.56-2.16,10.51-1.19,13.76,3,3.68,4.77,6.75,9.89,10.36,15.27l-11.67,7" transform="translate(-204.49 -282.95)"/><path class="cls-1" d="M360.41,337.05c-2.77-7.23-5.7-14.42-8.27-21.7-2.3-6.57-4.31-13.22-6.21-19.88-.48-1.71-.07-3.6-.07-5.41,6.94-6.79,13.89-6.84,16.58,0,2.33,5.95,4.28,12,6.27,18.07,2.39,7.21,4.67,14.44,6.92,21.69a15.21,15.21,0,0,1,.42,3.13l-16.33,3.66v16.09" transform="translate(-204.49 -282.95)"/><path class="cls-1" d="M253,372.59a38,38,0,0,1,.66,4.82c.12,6.46-3,11.22-9.65,12.72-6.27,1.41-13.38-.44-16.65-4.89-2.1-2.84-.16-11.52,2.71-14.5,4.15-4.3,11.6-4.61,16.65-2.3,2,.91,3.55,2.54,5.62,4.09l24.92-12" transform="translate(-204.49 -282.95)"/><path class="cls-1" d="M304.27,348.49c2.22,8.28.91,12.51-6.3,15.56-7.57,3.2-14.58,1.76-20.44-5.64-2-7.69-.63-11.71,6-14.73,7.54-3.47,14-2.3,20.1,3.61" transform="translate(-204.49 -282.95)"/><path class="cls-1" d="M273.08,329.82,255.37,316l-43,21.43L219,357.53" transform="translate(-204.49 -282.95)"/><path class="cls-1" d="M320.91,366.57h-9.36v9.64h9.36" transform="translate(-204.49 -282.95)"/><path class="cls-1" d="M226,331.63,237,347.89" transform="translate(-204.49 -282.95)"/><path class="cls-1" d="M348.63,299.7c5,0,10.17.28,13.86-3.62" transform="translate(-204.49 -282.95)"/><path class="cls-1" d="M347.94,373.19l6.46,4.06-6.81,5.18c-7-4-7.07-5.37-1-9.24" transform="translate(-204.49 -282.95)"/><path class="cls-1" d="M350.71,364.16c6.67,1.68,11.09,5.16,11.76,11.45.59,5.51-1.06,10.21-6.9,13.26-5.19,2.71-13,2.46-17.34-.61-5.29-3.79-7.61-10.1-5.54-15.07,2.27-5.45,7.86-8.92,14.55-9,.93,0,1.85,0,2.78,0" transform="translate(-204.49 -282.95)"/></svg>